<?xml version="1.0" encoding="UTF-8"?>
<svg id="Ebene_1" xmlns="http://www.w3.org/2000/svg" width="765.4" height="300" version="1.1" viewBox="0 0 765.4 300">
  <!-- Generator: Adobe Illustrator 30.0.0, SVG Export Plug-In . SVG Version: 2.1.1 Build 123)  -->
  <defs>
    <style>
      .st0 {
        fill: #fff;
      }

      .st1 {
        fill: #b8b5ff;
      }
    </style>
  </defs>
  <path class="st1" d="M197.8,98.5c19.4,0,34.9,15.5,34.9,34.9s-15.5,34.6-34.9,34.6-34.6-15.5-34.6-34.6,15.5-34.9,34.6-34.9Z"/>
  <g>
    <polygon class="st0" points="749.7 246.7 752.2 246.7 752.2 217.9 749.2 217.9 749.2 241.2 730.7 217.9 728.1 217.9 728.1 246.7 731.2 246.7 731.2 223.3 749.7 246.7"/>
    <polygon class="st0" points="708 220.5 708 217.9 688.3 217.9 688.3 246.7 708.6 246.7 708.6 244 691.3 244 691.3 233.3 706.2 233.3 706.2 230.7 691.3 230.7 691.3 220.5 708 220.5"/>
    <polygon class="st0" points="663.5 233.4 663.5 246.7 666.5 246.7 666.5 217.9 663.5 217.9 663.5 230.7 645.5 230.7 645.5 217.9 642.4 217.9 642.4 246.7 645.5 246.7 645.5 233.4 663.5 233.4"/>
    <path class="st0" d="M623.6,242.7l-1.9-1.9c-1.2,1.2-2.5,2.1-3.9,2.6s-3,.8-4.6.8-3.3-.3-4.8-.9c-1.5-.6-2.8-1.4-3.9-2.5-1.1-1.1-2-2.4-2.6-3.8-.6-1.5-.9-3-.9-4.8s.3-3.3.9-4.7c.6-1.5,1.5-2.7,2.6-3.8,1.1-1.1,2.4-1.9,3.9-2.5,1.5-.6,3.1-.9,4.8-.9s3.2.3,4.6.8c1.4.5,2.7,1.4,3.9,2.6l1.9-1.9c-1.3-1.4-2.8-2.4-4.7-3.1-1.8-.7-3.8-1.1-5.9-1.1s-4.2.4-6,1.1c-1.8.7-3.4,1.7-4.8,3-1.3,1.3-2.4,2.9-3.2,4.7-.7,1.8-1.1,3.7-1.1,5.8s.4,4.1,1.1,5.8c.8,1.8,1.8,3.3,3.2,4.7,1.3,1.3,2.9,2.3,4.8,3.1,1.8.7,3.8,1.1,6,1.1s4.1-.4,5.9-1.1c1.8-.7,3.4-1.8,4.7-3.2Z"/>
    <path class="st0" d="M577.1,239l3.4,7.7h3.2l-13.2-28.8h-3l-13.2,28.8h3.2l3.4-7.7h16.1ZM569,221l6.9,15.5h-13.9l6.9-15.5Z"/>
    <polygon class="st0" points="522.4 239.2 509.8 217.9 507.3 217.9 507.3 246.7 510.3 246.7 510.3 223.8 521.6 243 523 243 534.3 223.6 534.3 246.7 537.3 246.7 537.3 217.9 534.7 217.9 522.4 239.2"/>
    <polygon class="st0" points="466.8 220.5 476.9 220.5 476.9 246.7 480 246.7 480 220.5 490.1 220.5 490.1 217.9 466.8 217.9 466.8 220.5"/>
    <rect class="st0" x="446.6" y="217.9" width="3" height="28.8"/>
    <polygon class="st0" points="409.9 239.2 397.4 217.9 394.9 217.9 394.9 246.7 397.8 246.7 397.8 223.8 409.1 243 410.6 243 421.9 223.6 421.9 246.7 424.8 246.7 424.8 217.9 422.3 217.9 409.9 239.2"/>
    <polygon class="st0" points="338.2 217.9 335.2 217.9 335.2 246.7 354.3 246.7 354.3 244 338.2 244 338.2 217.9"/>
    <path class="st0" d="M301.9,217.9l-13.2,28.8h3.2l3.4-7.7h16.1l3.4,7.7h3.2l-13.2-28.8h-3ZM296.4,236.5l6.9-15.5,6.9,15.5h-13.9Z"/>
    <polygon class="st0" points="268.5 241.2 250 217.9 247.5 217.9 247.5 246.7 250.5 246.7 250.5 223.3 269 246.7 271.5 246.7 271.5 217.9 268.5 217.9 268.5 241.2"/>
    <path class="st0" d="M223,234.2c0,3.4-.8,5.9-2.3,7.5-1.5,1.6-3.7,2.4-6.5,2.4s-5-.8-6.5-2.4c-1.5-1.6-2.3-4.1-2.3-7.5v-16.4h-3v16.5c0,4.1,1.1,7.3,3.2,9.4s5,3.2,8.7,3.2,6.6-1.1,8.6-3.2c2.1-2.1,3.2-5.2,3.2-9.4v-16.5h-3v16.4Z"/>
    <polygon class="st0" points="165.8 239.2 153.3 217.9 150.8 217.9 150.8 246.7 153.7 246.7 153.7 223.8 165.1 243 166.5 243 177.8 223.6 177.8 246.7 180.8 246.7 180.8 217.9 178.2 217.9 165.8 239.2"/>
    <polygon class="st0" points="114.2 239.2 101.7 217.9 99.1 217.9 99.1 246.7 102.1 246.7 102.1 223.8 113.4 243 114.8 243 126.2 223.6 126.2 246.7 129.1 246.7 129.1 217.9 126.6 217.9 114.2 239.2"/>
    <path class="st0" d="M75.6,221.8c-1.3-1.3-2.9-2.3-4.8-3-1.8-.7-3.8-1.1-6-1.1s-4.2.4-6.1,1.1c-1.8.7-3.4,1.7-4.8,3.1-1.3,1.3-2.4,2.9-3.2,4.7-.7,1.8-1.1,3.7-1.1,5.8s.4,4.1,1.1,5.8c.8,1.8,1.8,3.3,3.2,4.7,1.4,1.3,3,2.3,4.8,3.1,1.9.7,3.9,1.1,6.1,1.1s4.2-.4,6-1.1c1.8-.7,3.4-1.8,4.8-3.1,1.4-1.3,2.4-2.9,3.2-4.7.8-1.8,1.2-3.7,1.2-5.8s-.4-4.1-1.2-5.8c-.7-1.8-1.8-3.3-3.2-4.7ZM76,237c-.6,1.4-1.5,2.7-2.6,3.8-1.1,1.1-2.3,1.9-3.8,2.5-1.5.6-3,.9-4.8.9s-3.3-.3-4.8-.9c-1.5-.6-2.8-1.4-3.9-2.5-1.1-1.1-1.9-2.4-2.6-3.8-.6-1.5-.9-3-.9-4.7s.3-3.3.9-4.7c.6-1.5,1.5-2.7,2.6-3.8,1.1-1.1,2.4-1.9,3.9-2.5,1.5-.6,3.1-.9,4.8-.9s3.3.3,4.8.9c1.5.6,2.8,1.4,3.8,2.5,1.1,1.1,1.9,2.3,2.6,3.8.6,1.4.9,3,.9,4.7s-.3,3.3-.9,4.8Z"/>
    <polygon class="st0" points="35.1 217.9 31.6 217.9 14.7 235.3 14.7 217.9 11.7 217.9 11.7 246.7 14.7 246.7 14.7 239.1 20.6 233.1 32.4 246.7 36 246.7 22.7 230.9 35.1 217.9"/>
    <polygon class="st0" points="747 268.3 747 279.9 737.4 268.3 732.3 268.3 732.3 290.1 738.4 290.1 738.4 278.4 748 290.1 753.1 290.1 753.1 268.3 747 268.3"/>
    <polygon class="st0" points="708.2 281.3 717.8 281.3 717.8 276.7 708.2 276.7 708.2 273 719.1 273 719.1 268.3 702 268.3 702 290.1 719.6 290.1 719.6 285.3 708.2 285.3 708.2 281.3"/>
    <rect class="st0" x="682.1" y="268.3" width="6.2" height="21.8"/>
    <path class="st0" d="M668.2,280.6c.8-1.2,1.2-2.6,1.2-4.3s-.4-3.1-1.2-4.3c-.8-1.2-1.9-2.2-3.4-2.8-1.4-.6-3.1-1-5.1-1h-10v21.8h6.2v-5.8h3.4l4,5.8h6.6l-4.7-6.9c1.3-.6,2.4-1.5,3.1-2.6ZM662.2,274c.6.6,1,1.4,1,2.4s-.3,1.8-1,2.3c-.6.6-1.6.8-2.9.8h-3.4v-6.4h3.4c1.3,0,2.2.3,2.9.8Z"/>
    <path class="st0" d="M632.9,269.2c-1.4-.6-3.1-1-5.1-1h-10v21.8h6.2v-5.7h3.8c2,0,3.7-.3,5.1-1,1.5-.7,2.6-1.6,3.4-2.8.8-1.2,1.2-2.6,1.2-4.3s-.4-3.1-1.2-4.3c-.8-1.2-1.9-2.2-3.4-2.8ZM630.2,278.7c-.6.6-1.6.8-2.9.8h-3.4v-6.4h3.4c1.3,0,2.2.3,2.9.8.6.6,1,1.4,1,2.4s-.3,1.8-1,2.3Z"/>
    <polygon class="st0" points="579.6 279.9 570 268.3 564.9 268.3 564.9 290.1 570.9 290.1 570.9 278.4 580.6 290.1 585.6 290.1 585.6 268.3 579.6 268.3 579.6 279.9"/>
    <rect class="st0" x="545" y="268.3" width="6.2" height="21.8"/>
    <path class="st0" d="M742.8,153.2s-4.5,3.4-9.5,3.4c-6,0-8.6-5-8.6-15.3v-35.1h23.2v-29.1h-23.2v-41.1h-38.1v41.1h-52.2v101.5l-15.1-168.7h-43l-39.4,102.5-39.4-102.5h-43l-13,144.8v-40c0-30.8-22.8-40.9-43-40.9s-25,6.2-36.6,20.2c-7.7-14.9-23.9-20.2-38.5-20.2s-23,6.2-31.6,14.9h-.4v-11.6h-38.1v21c8,11.6,10.4,19.5,11.7,33.1-.5,15.9-3.5,23.6-11.7,36v20.3h38.1v-64.6c0-8.8,5-18.5,17.7-18.5s19.4,9.7,19.4,20.7v62.4h38.1v-65.9c.4-8.4,5.6-17.2,17.6-17.2s19.4,9.7,19.4,20.7v62.4h35.2,0s40.5,0,40.5,0l8.4-105.3h1.1l36.4,104.2h24.1l36.4-104.2h1.1l8.4,105.3h77.8v-81.4h14.1v42.4c0,19.6,7.3,42.2,37.7,42.2,15.7,0,28-6.9,28-6.9l-9.5-30.8Z"/>
    <path class="st0" d="M653.9,54.2c12.5,0,22.6-10.1,22.6-22.6,0-12.5-10.1-22.6-22.6-22.6-12.5,0-22.6,10.1-22.6,22.6,0,12.5,10.1,22.6,22.6,22.6Z"/>
    <polygon class="st0" points="52.1 112.1 117.5 187.4 173.2 187.4 90.6 94 162 9.9 113 9.9 52.1 82.4 52.1 9.9 11.7 9.9 11.7 187.4 52.1 187.4 52.1 112.1"/>
  </g>
</svg>