<?xml version="1.0" encoding="UTF-8"?>
<svg id="Ebene_1" xmlns="http://www.w3.org/2000/svg" width="765.4" height="300" version="1.1" viewBox="0 0 765.4 300">
  <!-- Generator: Adobe Illustrator 30.0.0, SVG Export Plug-In . SVG Version: 2.1.1 Build 123)  -->
  <defs>
    <style>
      .st0 {
        fill: #fff;
      }
    </style>
  </defs>
  <path class="st0" d="M728.1,246.7v-28.8h2.5l19.9,25h-1.3v-25h3v28.8h-2.5l-19.8-25h1.3v25h-3Z"/>
  <path class="st0" d="M691,230.7h15.2v2.6h-15.2v-2.6ZM691.3,244h17.3v2.6h-20.4v-28.8h19.8v2.6h-16.7v23.6Z"/>
  <path class="st0" d="M663.5,217.9h3v28.8h-3v-28.8ZM645.5,246.7h-3v-28.8h3v28.8ZM663.8,233.4h-18.7v-2.7h18.7v2.7Z"/>
  <path class="st0" d="M613,246.9c-2.2,0-4.2-.4-6-1.1-1.8-.7-3.4-1.8-4.8-3.1-1.3-1.3-2.4-2.9-3.2-4.7-.7-1.8-1.1-3.7-1.1-5.8s.4-4.1,1.1-5.8c.8-1.8,1.8-3.3,3.2-4.7,1.4-1.3,3-2.3,4.8-3,1.8-.7,3.8-1.1,6-1.1s4,.4,5.9,1.1c1.8.7,3.4,1.7,4.7,3.1l-1.9,1.9c-1.2-1.2-2.5-2.1-3.9-2.6-1.4-.5-3-.8-4.6-.8s-3.3.3-4.8.9c-1.5.6-2.8,1.4-3.9,2.5-1.1,1.1-2,2.3-2.6,3.8-.6,1.4-.9,3-.9,4.7s.3,3.3.9,4.8c.6,1.4,1.5,2.7,2.6,3.8,1.1,1.1,2.4,1.9,3.9,2.5,1.5.6,3.1.9,4.8.9s3.2-.3,4.6-.8c1.4-.5,2.7-1.4,3.9-2.6l1.9,1.9c-1.3,1.4-2.8,2.5-4.7,3.2-1.8.7-3.8,1.1-5.9,1.1Z"/>
  <path class="st0" d="M554.4,246.7l13.2-28.8h3l13.2,28.8h-3.2l-12.1-27h1.2l-12.1,27h-3.2ZM559.6,239l.9-2.5h16.8l.9,2.5h-18.6Z"/>
  <path class="st0" d="M507.3,246.7v-28.8h2.5l13.2,22.5h-1.3l13.1-22.5h2.5v28.8h-2.9v-24.2h.7l-12,20.6h-1.4l-12.1-20.6h.8v24.2h-2.9Z"/>
  <path class="st0" d="M476.9,246.7v-26.2h-10.1v-2.6h23.3v2.6h-10.1v26.2h-3Z"/>
  <path class="st0" d="M446.6,246.7v-28.8h3v28.8h-3Z"/>
  <path class="st0" d="M394.9,246.7v-28.8h2.5l13.2,22.5h-1.3l13.1-22.5h2.5v28.8h-2.9v-24.2h.7l-12,20.6h-1.4l-12.1-20.6h.8v24.2h-2.9Z"/>
  <path class="st0" d="M335.2,246.7v-28.8h3v26.2h16.1v2.6h-19.2Z"/>
  <path class="st0" d="M288.7,246.7l13.2-28.8h3l13.2,28.8h-3.2l-12.1-27h1.2l-12.1,27h-3.2ZM293.9,239l.9-2.5h16.8l.9,2.5h-18.6Z"/>
  <path class="st0" d="M247.5,246.7v-28.8h2.5l19.9,25h-1.3v-25h3v28.8h-2.5l-19.8-25h1.3v25h-3Z"/>
  <path class="st0" d="M214.1,246.9c-3.7,0-6.6-1.1-8.7-3.2-2.1-2.1-3.2-5.2-3.2-9.4v-16.5h3v16.4c0,3.4.8,5.9,2.3,7.5,1.5,1.6,3.7,2.4,6.5,2.4s5-.8,6.5-2.4c1.5-1.6,2.3-4.1,2.3-7.5v-16.4h3v16.5c0,4.1-1.1,7.3-3.2,9.4-2.1,2.1-5,3.2-8.6,3.2Z"/>
  <path class="st0" d="M150.8,246.7v-28.8h2.5l13.2,22.5h-1.3l13.1-22.5h2.5v28.8h-2.9v-24.2h.7l-12,20.6h-1.4l-12.1-20.6h.8v24.2h-2.9Z"/>
  <path class="st0" d="M99.1,246.7v-28.8h2.5l13.2,22.5h-1.3l13.1-22.5h2.5v28.8h-2.9v-24.2h.7l-12,20.6h-1.4l-12.1-20.6h.8v24.2h-2.9Z"/>
  <path class="st0" d="M64.9,246.9c-2.2,0-4.2-.4-6.1-1.1-1.8-.7-3.4-1.8-4.8-3.1-1.3-1.3-2.4-2.9-3.2-4.7-.7-1.8-1.1-3.7-1.1-5.8s.4-4,1.1-5.8c.8-1.8,1.8-3.3,3.2-4.7,1.4-1.3,3-2.4,4.8-3.1,1.8-.7,3.9-1.1,6.1-1.1s4.2.4,6,1.1c1.8.7,3.4,1.7,4.8,3,1.4,1.3,2.4,2.9,3.2,4.7.8,1.8,1.2,3.7,1.2,5.8s-.4,4.1-1.2,5.8c-.7,1.8-1.8,3.3-3.2,4.7-1.3,1.3-2.9,2.3-4.8,3.1-1.8.7-3.8,1.1-6,1.1ZM64.9,244.2c1.7,0,3.3-.3,4.8-.9,1.5-.6,2.8-1.4,3.8-2.5,1.1-1.1,1.9-2.4,2.6-3.8.6-1.5.9-3,.9-4.8s-.3-3.3-.9-4.7c-.6-1.5-1.5-2.7-2.6-3.8-1.1-1.1-2.3-1.9-3.8-2.5-1.5-.6-3-.9-4.8-.9s-3.3.3-4.8.9c-1.5.6-2.8,1.4-3.9,2.5-1.1,1.1-1.9,2.3-2.6,3.8-.6,1.4-.9,3-.9,4.7s.3,3.3.9,4.7c.6,1.5,1.5,2.7,2.6,3.8,1.1,1.1,2.4,1.9,3.9,2.5,1.5.6,3.1.9,4.8.9Z"/>
  <path class="st0" d="M14.3,239.5v-3.7c-.1,0,17.3-18,17.3-18h3.5l-12.7,13.3-1.7,1.9-6.4,6.5ZM11.7,246.7v-28.8h3v28.8h-3ZM32.4,246.7l-12.4-14.3,2.1-2.2,14,16.6h-3.6Z"/>
  <g>
    <polygon class="st0" points="747 268.3 747 279.9 737.4 268.3 732.3 268.3 732.3 290.1 738.4 290.1 738.4 278.4 748 290.1 753.1 290.1 753.1 268.3 747 268.3"/>
    <polygon class="st0" points="708.2 281.3 717.8 281.3 717.8 276.7 708.2 276.7 708.2 273 719.1 273 719.1 268.3 702 268.3 702 290.1 719.6 290.1 719.6 285.3 708.2 285.3 708.2 281.3"/>
    <rect class="st0" x="682.1" y="268.3" width="6.2" height="21.8"/>
    <path class="st0" d="M668.2,280.6c.8-1.2,1.2-2.6,1.2-4.3s-.4-3.1-1.2-4.3c-.8-1.2-1.9-2.2-3.4-2.8-1.4-.6-3.1-1-5.1-1h-10v21.8h6.2v-5.8h3.4l4,5.8h6.6l-4.7-6.9c1.3-.6,2.4-1.5,3.1-2.6ZM662.2,274c.6.6,1,1.4,1,2.4s-.3,1.8-1,2.3c-.6.6-1.6.8-2.9.8h-3.4v-6.4h3.4c1.3,0,2.2.3,2.9.8Z"/>
    <path class="st0" d="M632.9,269.2c-1.4-.6-3.1-1-5.1-1h-10v21.8h6.2v-5.7h3.8c2,0,3.7-.3,5.1-1,1.5-.7,2.6-1.6,3.4-2.8.8-1.2,1.2-2.6,1.2-4.3s-.4-3.1-1.2-4.3c-.8-1.2-1.9-2.2-3.4-2.8ZM630.2,278.7c-.6.6-1.6.8-2.9.8h-3.4v-6.4h3.4c1.3,0,2.2.3,2.9.8.6.6,1,1.4,1,2.4s-.3,1.8-1,2.3Z"/>
    <polygon class="st0" points="579.6 279.9 570 268.3 564.9 268.3 564.9 290.1 570.9 290.1 570.9 278.4 580.6 290.1 585.6 290.1 585.6 268.3 579.6 268.3 579.6 279.9"/>
    <rect class="st0" x="545" y="268.3" width="6.2" height="21.8"/>
  </g>
  <path class="st0" d="M197.8,98.5c19.4,0,34.9,15.5,34.9,34.9s-15.5,34.6-34.9,34.6-34.6-15.5-34.6-34.6,15.5-34.9,34.6-34.9Z"/>
  <path class="st0" d="M653.9,9c12.5,0,22.6,10.1,22.6,22.6,0,12.5-10.1,22.6-22.6,22.6-12.5,0-22.6-10.1-22.6-22.6,0-12.5,10.1-22.6,22.6-22.6Z"/>
  <path class="st0" d="M742.8,153.2s-4.5,3.4-9.5,3.4c-6,0-8.6-5-8.6-15.3v-35.1h23.2v-29.1h-23.2v-41.1h-38.1v41.1h-52.2v101.5l-15.1-168.7h-43l-39.4,102.5-39.4-102.5h-43l-13,144.8v-40c0-30.8-22.8-40.9-43-40.9s-25,6.2-36.6,20.2c-7.7-14.9-23.9-20.2-38.5-20.2s-23,6.2-31.6,14.9h-.4v-11.6h-38.1v21c8,11.6,10.4,19.5,11.7,33.1-.5,15.9-3.5,23.6-11.7,36v20.3h38.1v-64.6c0-8.8,5-18.5,17.7-18.5s19.4,9.7,19.4,20.7v62.4h38.1v-65.9c.4-8.4,5.6-17.2,17.6-17.2s19.4,9.7,19.4,20.7v62.4h35.2,0s40.5,0,40.5,0l8.4-105.3h1.1l36.4,104.2h24.1l36.4-104.2h1.1l8.4,105.3h77.8v-81.4h14.1v42.4c0,19.6,7.3,42.2,37.7,42.2,15.7,0,28-6.9,28-6.9l-9.5-30.8Z"/>
  <path class="st0" d="M173.2,187.4h-55.7L52.1,112.1v75.3H11.7V9.9h40.4v72.5L113,9.9h49l-71.4,84.1,82.6,93.4Z"/>
</svg>